# xmcd
#
# Track frame offsets:
#	150
#	13490
#	26380
#	42249
#	53653
#	70390
#	86517
#	100546
#	116344
#	130997
#	141699
#	156285
#	174336
#	183671
#	218303
#	225216
#	242042
#	252291
#	265594
#	280374
#	293856
#	308001
#	321519
#	329729
#
# Disc length: 4604
#
# Revision: 1
# Processed by: cddbd v1.5.1PL0 Copyright (c) Steve Scherf et al.
# Submitted via: ExactAudioCopy v0.90a11
# Normalized: r0:TRMNUM
#
DISCID=5a11fa18
DTITLE=Hank III and AssJack - 2002-03-17 Riverton, IL Disc 1
DYEAR=1900
DGENRE=
TTITLE0=Juke Joint Jumpin
TTITLE1=Shoe Fits
TTITLE2=Thunderstorms and Neon Signs
TTITLE3=Straight To Hell
TTITLE4=I Don't Know
TTITLE5=Mississippi Mud
TTITLE6=87 Southbound 
TTITLE7=7 Months 39 Days
TTITLE8=Nightime Ramblin Man
TTITLE9=One Horse Town
TTITLE10=Wine Spodie Odie 
TTITLE11=Why Don't Leave Me Alone
TTITLE12=Lovin n Hug'n 
TTITLE13=Devils Daughter > Long Black Veil
TTITLE14=Why Don't You Call Me By My Name
TTITLE15=Long Haired Country Boy 
TTITLE16=If You Don't Like Hank Williams
TTITLE17=You Win Again
TTITLE18=Kawliega
TTITLE19=Lonesome Blues
TTITLE20=Old Habits
TTITLE21=Whiskeybent and Hellbound
TTITLE22=Orange Blossom Special
TTITLE23=obs (cont.)
EXTD=
EXTT0=
EXTT1=
EXTT2=
EXTT3=
EXTT4=
EXTT5=
EXTT6=
EXTT7=
EXTT8=
EXTT9=
EXTT10=
EXTT11=
EXTT12=
EXTT13=
EXTT14=
EXTT15=
EXTT16=
EXTT17=
EXTT18=
EXTT19=
EXTT20=
EXTT21=
EXTT22=
EXTT23=
PLAYORDER=
